<svg id="Layer_1" data-name="Layer 1" xmlns="http://www.w3.org/2000/svg" viewBox="0 0 154.56 137.4"><defs><style>.cls-1{opacity:0.28;}.cls-2{fill:#00c7c9;}.cls-2,.cls-3{stroke:#00c7c9;stroke-miterlimit:10;}.cls-3{fill:none;}</style></defs><title>logo</title><g class="cls-1"><path class="cls-2" d="M125.41,102.72,162.47,147H141L114.36,115c-.71.88-1.46,1.77-2.26,2.68s-1.62,1.8-2.49,2.67V147H93.22V63.88h16.39V95.35l28.27-31.47h22.21Z" transform="translate(-8.98 -10.12)"/><path class="cls-2" d="M109.67,10.62v84H93.28V40.91L63.34,70.61,33.53,40.91V94.6H17v-84h9.14l37.18,37,37.3-36.95Z" transform="translate(-8.98 -10.12)"/></g><path class="cls-3" d="M102.07,63.88V95.35l28.27-31.47h22.21l-34.68,38.84L154.93,147h-21.5L106.82,115c-.71.88-1.47,1.77-2.26,2.68s-1.62,1.8-2.49,2.67V147H85.68V63.88" transform="translate(-8.98 -10.12)"/><path class="cls-3" d="M85.73,94.6V40.91L55.8,70.61,26,40.91V94.6H9.48v-84h9.14l37.18,37L93.1,10.62h9v84" transform="translate(-8.98 -10.12)"/></svg>